<?xml version="1.0" standalone="no"?><!DOCTYPE svg PUBLIC "-//W3C//DTD SVG 1.1//EN" "http://www.w3.org/Graphics/SVG/1.1/DTD/svg11.dtd"><svg t="1568170974517" class="icon" viewBox="0 0 1024 1024" version="1.1" xmlns="http://www.w3.org/2000/svg" p-id="6431" width="128" height="128" xmlns:xlink="http://www.w3.org/1999/xlink"><defs><style type="text/css"></style></defs><path d="M512.404 232.133c-79.237 0-143.695 63.297-143.695 141.075 0 77.762 64.458 140.991 143.695 140.991 79.233 0 143.656-63.229 143.656-140.991 0-77.782-64.424-141.075-143.656-141.075M512.404 451.733c-44.048 0-79.882-35.235-79.882-78.555 0-43.309 35.834-78.561 79.882-78.561 44.017 0 79.848 35.25 79.848 78.561 0 43.318-35.83 78.555-79.848 78.555M848.718 394.144c0-182.14-150.869-330.313-336.313-330.313-185.412 0-336.218 148.173-336.218 330.313 0 142.85 207.049 430.689 296.119 547.793 9.375 12.356 24.381 19.702 40.102 19.702 15.685 0 30.722-7.343 40.133-19.702 89.036-117.102 296.179-404.905 296.179-547.793M517.706 891.941l-5.302 7.050-5.306-7.050c-168.138-223.414-272.665-414.174-272.665-497.797 0-150.56 124.673-273.052 277.971-273.052 153.262 0 277.94 122.493 277.94 273.052 0.031 83.654-104.433 274.383-272.638 497.797z" p-id="6432" fill="#2c2c2c"></path></svg>