<?xml version="1.0" standalone="no"?><!DOCTYPE svg PUBLIC "-//W3C//DTD SVG 1.1//EN" "http://www.w3.org/Graphics/SVG/1.1/DTD/svg11.dtd"><svg t="1568717560873" class="icon" viewBox="0 0 1024 1024" version="1.1" xmlns="http://www.w3.org/2000/svg" p-id="14492" xmlns:xlink="http://www.w3.org/1999/xlink" width="128" height="128"><defs><style type="text/css"></style></defs><path d="M436.395 867.079L216 686.761l55.086-45.065L491.48 822.018l385.7-315.578 55.133 45.082-385.7 315.557-55.133 45.095-55.085-45.095z m0 0M521.143 446.854a8685.157 8685.157 0 0 1 51.318 20.459c13.637-11.846 25.154-27.382 34.546-46.623h-66.746a1997.806 1997.806 0 0 1-19.118 26.164z m0 0" p-id="14493" fill="#409EFF"></path><path d="M688.509 118.586H345.057c-42.93 0-78.057 35.126-78.057 78.057v343.452c0 42.934 35.126 78.057 78.057 78.057h343.452c42.934 0 78.058-35.123 78.058-78.057V196.643c-0.001-42.931-35.128-78.057-78.058-78.057z m-46.956 98.852l20.125 14.087c-13.197 15.885-27.618 31.313-43.268 46.283l-17.105-14.757c15.429-14.97 28.843-30.186 40.248-45.613z m-143.552-0.336c16.319 14.315 30.522 28.296 42.597 41.927l-18.112 16.433c-10.962-13.628-24.379-28.173-40.249-43.604l15.764-14.756z m-72.782 317.291h-24.15V347.909c-11.182 39.806-24.599 71.669-40.248 95.59-2.911-9.605-6.373-19.453-10.398-29.517 22.358-37.107 38.124-76.577 47.292-118.395h-42.597v-23.479h45.95v-68.424h24.15v68.424h37.899v23.479h-37.899v31.19l9.391-9.392c15.427 14.087 27.837 26.392 37.229 36.895l-17.442 16.437c-7.829-10.064-17.554-21.238-29.181-33.542v197.217h0.004zM681.13 420.691h-48.633c-10.291 23.267-22.138 42.049-35.552 56.348a2765.019 2765.019 0 0 1 80.832 34.548l-13.08 22.472c-29.745-14.317-58.925-27.84-87.541-40.584-25.941 19.011-64.396 32.639-115.378 40.918-3.803-8.491-8.048-16.542-12.747-24.148 43.153-5.138 77.029-14.423 101.628-27.837a2840.368 2840.368 0 0 0-63.39-26.833 588.105 588.105 0 0 0 25.824-34.882h-56.348v-21.465h70.435a842.95 842.95 0 0 0 15.43-25.155l23.479 9.728-10.734 15.427H681.13v21.463z m-15.43-35.887c-33.989-18.554-61.604-42.933-82.842-73.12v65.405H559.38V311.35c-23.258 31.526-49.753 57.354-79.492 77.476-4.253-6.035-9.62-12.516-16.097-19.452 32.197-19.667 58.58-41.254 79.153-64.732h-67.752v-21.465h84.188v-80.833h23.479v80.833h91.563v21.465h-76.807c23.92 25.947 52.431 45.171 85.528 57.688-5.816 6.267-11.632 13.753-17.443 22.474z m0 0" p-id="14494" fill="#409EFF"></path></svg>