<?xml version="1.0" standalone="no"?><!DOCTYPE svg PUBLIC "-//W3C//DTD SVG 1.1//EN" "http://www.w3.org/Graphics/SVG/1.1/DTD/svg11.dtd"><svg t="1568686907595" class="icon" viewBox="0 0 1024 1024" version="1.1" xmlns="http://www.w3.org/2000/svg" p-id="28186" xmlns:xlink="http://www.w3.org/1999/xlink" width="128" height="128"><defs><style type="text/css"></style></defs><path d="M689.78688 204.74368h-358.4c-14.08 0-25.6 11.52-25.6 25.6s11.52 25.6 25.6 25.6h358.4c14.08 0 25.6-11.52 25.6-25.6s-11.52-25.6-25.6-25.6m0 153.6h-358.4c-14.08 0-25.6 11.52-25.6 25.6s11.52 25.6 25.6 25.6h358.4c14.08 0 25.6-11.52 25.6-25.6s-11.52-25.6-25.6-25.6m0 153.6h-358.4c-14.08 0-25.6 11.52-25.6 25.6s11.52 25.6 25.6 25.6h358.4c14.08 0 25.6-11.52 25.6-25.6s-11.52-25.6-25.6-25.6m128 153.6h-153.6c-56.32 0-102.4 46.08-102.4 102.4v153.6h-307.2c-28.2112 0-51.2-22.9888-51.2-51.2v-716.8c0-28.2112 22.9888-51.2 51.2-51.2h512c28.2112 0 51.2 22.9888 51.2 73.27232v489.92768z m-204.8 204.8v-102.4c0-28.2112 22.9888-51.2 51.2-51.2h102.4l-153.6 153.6z m153.6-819.2h-512c-56.32 0-102.4 46.08-102.4 102.4v716.8c0 56.32 46.08 102.4 102.4 102.4h316.01152c27.136 0 53.1968-10.79808 72.3968-29.99808l195.9936-195.99872a102.4256 102.4256 0 0 0 29.99808-72.3968V153.54368c0-56.32-46.08-102.4-102.4-102.4z" p-id="28187" fill="#FFBA4C"></path></svg>