<?xml version="1.0" standalone="no"?><!DOCTYPE svg PUBLIC "-//W3C//DTD SVG 1.1//EN" "http://www.w3.org/Graphics/SVG/1.1/DTD/svg11.dtd"><svg t="1568687163295" class="icon" viewBox="0 0 1024 1024" version="1.1" xmlns="http://www.w3.org/2000/svg" p-id="42420" xmlns:xlink="http://www.w3.org/1999/xlink" width="128" height="128"><defs><style type="text/css"></style></defs><path d="M128 128h256l128 96h384c35.3472 0 64 28.6528 64 64v544c0 35.3472-28.6528 64-64 64H128c-35.3472 0-64-28.6528-64-64V192c0-35.3472 28.6528-64 64-64z" fill="#CE9F06" p-id="42421"></path><path d="M224 288h576c17.6736 0 32 14.3264 32 32v448c0 17.6736-14.3264 32-32 32H224c-17.6736 0-32-14.3264-32-32V320c0-17.6736 14.3264-32 32-32z" fill="#FFFFFF" p-id="42422"></path><path d="M128 384h768c35.3472 0 64 28.6528 64 64v384c0 35.3472-28.6528 64-64 64H128c-35.3472 0-64-28.6528-64-64V448c0-35.3472 28.6528-64 64-64z" fill="#FFBA4C" p-id="42423" data-spm-anchor-id="a313x.7781069.0.i31" class="selected"></path></svg>