<?xml version="1.0" standalone="no"?><!DOCTYPE svg PUBLIC "-//W3C//DTD SVG 1.1//EN" "http://www.w3.org/Graphics/SVG/1.1/DTD/svg11.dtd"><svg t="1568717141140" class="icon" viewBox="0 0 1024 1024" version="1.1" xmlns="http://www.w3.org/2000/svg" p-id="11235" xmlns:xlink="http://www.w3.org/1999/xlink" width="128" height="128"><defs><style type="text/css"></style></defs><path d="M508.077667 51.512211l30.597879 0c53.101405 2.473331 105.996103 12.760628 155.369603 32.752961 102.923114 40.73475 189.790554 120.143311 239.780085 218.87087 31.778774 61.888536 48.604998 131.104967 50.104141 200.582341l0 16.507976c-1.461281 68.578911-17.838274 136.894833-48.866964 198.165292-30.204929 60.353576-74.011644 113.791649-127.019928 155.538449-54.226019 42.777269-118.232798 73.131601-185.743378 87.821161-27.412326 6.183839-55.443753 9.05012-83.437317 10.736529l-30.635741 0c-36.705993-1.948375-73.356728-6.895037-108.750843-16.994046-85.741803-23.73968-164.026774-73.282027-222.48621-140.287093-41.10928-46.786583-72.494081-102.098329-91.700515-161.364131C71.254857 610.726535 64.079434 565.532217 62.954821 520.244778l0-16.470113c1.630127-84.074837 26.363438-167.605276 71.688739-238.507092 48.080042-75.735915 118.68203-137.025816 200.638623-173.544545C389.527644 67.045999 448.662463 54.191226 508.077667 51.512211L508.077667 51.512211 508.077667 51.512211zM420.181805 149.751652c-29.192879 36.649711-48.230468 80.102363-63.706951 124.041084 21.716604 5.453199 43.995003 7.813966 66.086138 11.148921 27.393907 2.829442 54.862515 5.321192 82.443687 5.5279-0.019443-66.779939 0.019443-133.559878-0.019443-200.376657C469.928812 97.493451 441.72854 122.283044 420.181805 149.751652L420.181805 149.751652 420.181805 149.751652zM541.880541 290.469558c37.268812-0.674359 74.518181-3.76679 111.336738-9.742898 12.535501-1.593288 24.940019-3.935636 37.174668-6.970762-18.080797-51.414997-41.389666-102.605889-79.632665-142.328589-18.699897-19.580964-42.008766-35.657104-68.822458-41.335431C541.824259 156.890236 541.918403 223.670176 541.880541 290.469558L541.880541 290.469558 541.880541 290.469558zM383.793036 112.01519c-65.13037 22.690792-124.527155 61.626569-171.276898 112.329345 34.195823 18.062378 70.845535 31.422663 108.263749 41.016159 19.524682-58.891272 46.937009-117.146047 91.100858-161.703869C402.26883 105.549941 393.049864 108.885919 383.793036 112.01519L383.793036 112.01519 383.793036 112.01519zM634.81721 103.395882c9.199523 8.468882 16.582677 18.587334 24.62177 28.106128 30.091342 40.209794 51.133587 86.434581 66.760496 133.952828 37.399795-9.742898 73.936943-23.159466 108.263749-40.978297C781.00571 166.521594 711.077058 123.669624 634.81721 103.395882L634.81721 103.395882 634.81721 103.395882zM187.970092 253.162884c-52.91414 68.690452-84.317361 153.739477-87.690178 240.455467 61.364603-0.11154 122.747625-0.036839 184.112228-0.036839 1.199315-64.980967 9.518794-129.868813 25.876344-192.787818C267.865747 289.62533 226.475058 274.167267 187.970092 253.162884L187.970092 253.162884 187.970092 253.162884zM736.616734 300.792671c16.35755 62.920028 24.676006 127.806851 25.838482 192.769398 61.420885-0.019443 122.822326 0 184.244234 0-3.616364-86.697571-34.795481-171.802878-87.859024-240.437048C820.410162 274.27983 778.944771 289.532209 736.616734 300.792671L736.616734 300.792671 736.616734 300.792671zM321.19228 493.412666c61.289901 0.319272 122.541941 0.056282 183.812399 0.149403l0-166.256558c-53.326533-0.992607-106.708324-6.538927-158.854984-17.949814C330.298681 369.371582 322.559417 431.392124 321.19228 493.412666L321.19228 493.412666 321.19228 493.412666zM541.880541 327.287091c0 55.443753 0 110.849644 0.019443 166.274978 61.270459-0.11154 122.522498 0.205685 183.79398-0.168846-1.38658-62.019519-9.125845-124.041084-24.959461-184.075389C648.607284 320.804447 595.20605 326.294484 541.880541 327.287091L541.880541 327.287091 541.880541 327.287091zM100.242052 530.418488c3.447519 86.715991 34.794457 171.765015 87.747483 240.455467 38.467103-21.060665 79.914074-36.444027 122.278951-47.667649-16.375969-62.919005-24.620747-127.82527-25.913183-192.787818C222.9907 530.456351 161.625074 530.456351 100.242052 530.418488L100.242052 530.418488 100.242052 530.418488zM321.230142 530.567891c1.36816 62.020542 9.013281 124.135228 25.013697 184.15009 52.070936-11.617595 105.45375-16.975627 158.742421-18.006096 0.019443-55.425334 0.019443-110.869087 0.019443-166.274978C443.73422 530.531052 382.482181 530.268062 321.230142 530.567891L321.230142 530.567891 321.230142 530.567891zM541.880541 530.436908l0 166.256558c53.363372 0.974188 106.746186 6.576789 158.891823 17.930371 15.626909-60.127426 23.871687-122.16741 24.695448-184.281073C664.272056 530.567891 603.076298 530.381649 541.880541 530.436908L541.880541 530.436908 541.880541 530.436908zM762.455215 530.436908c-1.086751 64.944128-9.518794 129.850393-25.819039 192.769398 42.345434 11.167341 83.773985 26.550703 122.222669 47.648207 53.063543-68.615751 84.22424-153.721057 87.840604-240.399185C885.278565 530.418488 823.85768 530.456351 762.455215 530.436908L762.455215 530.436908 762.455215 530.436908zM356.511693 750.113119c17.931395 51.54598 41.428551 102.774735 79.68997 142.516878 18.662035 19.560498 41.971927 35.599799 68.784596 41.240263 0.057305-66.760496 0-133.540436 0.019443-200.320375C455.163527 734.524073 405.285536 739.601718 356.511693 750.113119L356.511693 750.113119 356.511693 750.113119zM541.880541 733.512023c0.019443 66.798359-0.037862 133.597741 0.037862 200.376657 34.982746-7.382131 63.144132-32.097022 84.673471-59.509349 29.249161-36.705993 48.416709-80.232322 63.800072-124.266212-22.37152-5.395894-45.231157-8.000208-67.941392-11.278881C595.637886 736.209458 568.824193 733.680868 541.880541 733.512023L541.880541 733.512023 541.880541 733.512023zM212.459856 799.542902c53.439096 57.897641 123.329886 100.805894 199.571315 121.004935-44.163849-44.669362-71.745021-102.905718-91.25026-161.909553C283.285948 768.082376 246.824525 781.835611 212.459856 799.542902L212.459856 799.542902 212.459856 799.542902zM726.161614 758.583025c-19.617803 59.060117-47.142693 117.370151-91.399663 162.095795 76.185146-20.366863 146.132218-63.107293 199.609177-121.042797C800.192701 781.555226 763.541967 768.307504 726.161614 758.583025L726.161614 758.583025 726.161614 758.583025zM726.161614 758.583025" p-id="11236" fill="#409EFF"></path></svg>