<?xml version="1.0" standalone="no"?><!DOCTYPE svg PUBLIC "-//W3C//DTD SVG 1.1//EN" "http://www.w3.org/Graphics/SVG/1.1/DTD/svg11.dtd"><svg t="1568717355151" class="icon" viewBox="0 0 1024 1024" version="1.1" xmlns="http://www.w3.org/2000/svg" p-id="11783" xmlns:xlink="http://www.w3.org/1999/xlink" width="128" height="128"><defs><style type="text/css"></style></defs><path d="M516.792 50.736c-97.197 0-175.99 78.818-175.99 176.045 0 97.227 78.793 176.045 175.99 176.045s175.99-78.818 175.99-176.045c0-97.227-78.794-176.045-175.99-176.045z m0 288.073c-61.753 0-111.994-50.256-111.994-112.029s50.24-112.029 111.994-112.029c61.753 0 111.993 50.256 111.993 112.029s-50.24 112.029-111.993 112.029zM197.514 646.75c-65.698 0-118.956 53.275-118.956 118.993s53.258 118.993 118.956 118.993S316.47 831.461 316.47 765.742 263.211 646.75 197.514 646.75z m-0.001 173.969c-30.304 0-54.959-24.663-54.959-54.976 0-30.314 24.655-54.977 54.959-54.977 30.305 0 54.96 24.663 54.96 54.977 0 30.313-24.655 54.976-54.96 54.976zM516.792 646.75c-65.698 0-118.956 53.275-118.956 118.993s53.258 118.993 118.956 118.993 118.956-53.275 118.956-118.993S582.489 646.75 516.792 646.75z m-0.001 173.969c-30.304 0-54.959-24.663-54.959-54.976 0-30.314 24.655-54.977 54.959-54.977 30.305 0 54.96 24.663 54.96 54.977 0 30.313-24.655 54.976-54.96 54.976zM837.602 646.75c-65.698 0-118.956 53.275-118.956 118.993s53.258 118.993 118.956 118.993 118.956-53.275 118.956-118.993S903.299 646.75 837.602 646.75z m0 173.969c-30.304 0-54.959-24.663-54.959-54.976 0-30.314 24.655-54.977 54.959-54.977 30.305 0 54.96 24.663 54.96 54.977-0.001 30.313-24.656 54.976-54.96 54.976z" p-id="11784" fill="#409EFF"></path><path d="M874.508 497.668v155.15c0 17.675-14.319 32.008-31.998 32.008-17.669 0-31.998-14.334-31.998-32.008V528.926H550.456v128.033H486.46V528.926H219.845v123.892c0 17.675-14.329 32.008-31.998 32.008s-31.998-14.334-31.998-32.008v-155.15c0.13-17.554 14.409-31.758 31.998-31.758H486.46v-65.017h63.996v65.017H842.51c8.839 0 16.839 3.581 22.629 9.372a31.918 31.918 0 0 1 9.369 22.386z" p-id="11785" fill="#409EFF"></path></svg>