<?xml version="1.0" standalone="no"?><!DOCTYPE svg PUBLIC "-//W3C//DTD SVG 1.1//EN" "http://www.w3.org/Graphics/SVG/1.1/DTD/svg11.dtd"><svg t="1568806191849" class="icon" viewBox="0 0 1260 1024" version="1.1" xmlns="http://www.w3.org/2000/svg" p-id="33528" xmlns:xlink="http://www.w3.org/1999/xlink" width="59.0625" height="48"><defs><style type="text/css"></style></defs><path d="M695.453538 525.154462a293.730462 293.730462 0 0 0 104.605539-224.098462 307.830154 307.830154 0 0 0-615.424 0 293.730462 293.730462 0 0 0 104.605538 224.098462A481.437538 481.437538 0 0 0 0 963.741538a61.597538 61.597538 0 0 0 123.116308 0 369.348923 369.348923 0 0 1 738.540307 0 61.597538 61.597538 0 0 0 123.116308 0A481.437538 481.437538 0 0 0 695.532308 525.233231z m-203.067076-43.401847a180.775385 180.775385 0 1 1 184.635076-180.696615 182.744615 182.744615 0 0 1-184.635076 180.696615z m671.428923 30.089847M1244.947692 456.940308a48.994462 48.994462 0 0 0-35.209846-15.36 9.688615 9.688615 0 0 0-1.811692-5.435077 83.731692 83.731692 0 0 0-6.301539-12.603077 203.224615 203.224615 0 0 1-7.876923-11.736616c-0.866462-0.866462-1.811692-2.678154-3.623384-4.489846a46.788923 46.788923 0 0 0 4.489846-37.888 52.696615 52.696615 0 0 0-24.339692-31.507692 62.070154 62.070154 0 0 0-39.384616-6.301538 60.258462 60.258462 0 0 0-30.641231 23.630769 437.563077 437.563077 0 0 0-39.384615 0.866461 54.193231 54.193231 0 0 0-30.641231-22.528 51.436308 51.436308 0 0 0-39.384615 4.489846 52.696615 52.696615 0 0 0-24.339692 31.507693 59.549538 59.549538 0 0 0 4.489846 38.833231 167.384615 167.384615 0 0 0-10.791385 16.226461 62.306462 62.306462 0 0 0-9.058461 17.171692 53.956923 53.956923 0 0 0-35.209847 14.41477 55.138462 55.138462 0 0 0-15.36 37.021538 49.939692 49.939692 0 0 0 16.226462 36.076308 48.994462 48.994462 0 0 0 35.209846 15.36 7.876923 7.876923 0 0 0 1.811692 5.435077c1.811692 3.623385 3.623385 7.876923 6.301539 12.603077a54.587077 54.587077 0 0 0 7.876923 11.736615 15.753846 15.753846 0 0 0 3.623385 4.489846 46.710154 46.710154 0 0 0-4.489847 37.888 56.241231 56.241231 0 0 0 24.339693 31.507692 51.830154 51.830154 0 0 0 39.384615 5.435077 52.854154 52.854154 0 0 0 30.641231-23.630769 139.815385 139.815385 0 0 0 19.849846 0.866462A73.334154 73.334154 0 0 0 1101.193846 630.153846a50.254769 50.254769 0 0 0 30.641231 23.630769 56.241231 56.241231 0 0 0 39.384615-5.435077 52.696615 52.696615 0 0 0 24.339693-31.507692 46.710154 46.710154 0 0 0-4.489847-37.888 168.723692 168.723692 0 0 0 10.870154-16.226461 103.108923 103.108923 0 0 0 9.058462-17.171693 49.782154 49.782154 0 0 0 35.209846-14.414769 54.193231 54.193231 0 0 0 14.414769-37.021538 51.121231 51.121231 0 0 0-15.36-37.021539z m-114.60923 49.624615a52.617846 52.617846 0 0 1-24.339693 31.507692 51.436308 51.436308 0 0 1-39.384615 4.489847 51.987692 51.987692 0 0 1-32.452923-24.339693 51.436308 51.436308 0 0 1-4.489846-39.384615 54.429538 54.429538 0 0 1 24.339692-30.641231 51.357538 51.357538 0 0 1 39.384615-5.435077 52.617846 52.617846 0 0 1 31.507693 24.339692 51.357538 51.357538 0 0 1 5.435077 39.384616z m0 0" fill="#57A3FD" p-id="33529"></path></svg>