<?xml version="1.0" standalone="no"?><!DOCTYPE svg PUBLIC "-//W3C//DTD SVG 1.1//EN" "http://www.w3.org/Graphics/SVG/1.1/DTD/svg11.dtd"><svg t="1568717497658" class="icon" viewBox="0 0 1024 1024" version="1.1" xmlns="http://www.w3.org/2000/svg" p-id="12965" xmlns:xlink="http://www.w3.org/1999/xlink" width="128" height="128"><defs><style type="text/css"></style></defs><path d="M64 958.592v-464.64l168.704-62.976 11.776-4.48v401.728l13.44-3.456V168.768l218.688-92.48V76.16l15.36-6.464v701.12l2.944 109.696h0.768V960H64v-1.408z m835.776-17.408l41.344 12.928v-51.84l-41.344-9.6v48.512z m55.68 17.408L960 960h-198.976v-1.408h-16.32V606.016l14.08 5.312L960 686.912v271.744h-4.48z m-74.24-23.168v-47.168l-44.544-10.432v43.648l44.544 13.952z m-64.512-20.16v-42.112l-48.256-11.328v38.4l48.256 15.04z m-731.136-46.08l28.928-7.488v-46.528l-34.688 4.288v50.176l5.76-0.448z m44.416-11.52l37.376-9.6v-39.488l-37.376 4.608v44.544z m54.144-13.888l40.448-10.432v-31.872l-40.448 5.056v37.248z m94.336-24.32l44.928-11.52v-57.92l-44.928 3.52v65.92z m65.024-16.768l48.512-12.48v-45.568l-48.512 3.776v54.272z m70.208-18.048l52.352-13.504v-32.256l-52.352 4.096v41.6z m101.504 173.952V64l209.28 125.76v768.832H515.2z m-400.64-166.592v-51.52l-34.752 6.208v50.176l34.688-4.864z m0-74.688v-51.52l-34.752 8.128v50.24l34.688-6.848z m0-74.624v-51.584l-34.752 9.984v50.24l34.688-8.64z m0-74.688v-51.584l-34.752 11.904v50.24l34.688-10.56z m52.8 216.576v-53.568l-37.376 6.72v52.096l37.376-5.248z m0-77.568v-53.568l-37.376 8.704v52.16l37.376-7.296z m0-77.568v-53.568l-37.376 10.752v52.16l37.376-9.344z m0-77.568v-53.568l-37.376 12.8v52.16l37.376-11.392z m57.216 224.64v-55.68l-40.448 7.168v54.208l40.448-5.696z m0-80.64v-55.744l-40.448 9.408v54.208l40.448-7.936z m0-80.768v-55.68l-40.448 11.648v54.208l40.448-10.176z m0-80.64V478.72l-40.448 13.824v54.208l40.448-12.352z m98.816 181.568v-75.648l-44.928 6.272v73.792l44.928-4.416z m0-109.568V530.688l-44.928 9.088v73.792l44.928-7.104z m0-109.696V421.12l-44.928 11.904v73.792l44.928-9.984z m0-109.632V311.424l-44.928 14.656v73.792l44.928-12.8z m0-109.632V201.792l-44.928 17.472v73.792l44.928-15.552z m68.608 431.872V630.72l-48.512 6.784v76.608l48.512-4.736z m0-113.92V516.864l-48.512 9.856v76.544l48.512-7.68z m0-113.92V403.008l-48.512 12.8v76.544l48.512-10.688z m0-113.856V289.024l-48.448 15.808V381.44l48.448-13.76z m0-113.92V175.168l-48.512 18.816v76.544l48.512-16.768z m74.048 448.384V620.352l-52.352 7.36v79.552l52.352-5.12z m0-118.464V501.76l-52.352 10.624V592l52.352-8.32z m0-118.528V383.36l-52.352 13.824V476.8l52.352-11.648z m0-118.464V264.832l-52.352 17.152v79.552l52.352-14.848z m0-118.528V146.368l-52.352 20.352v79.552l52.352-18.112z m433.728 485.568v61.76l41.344 12.672v-60.16l-41.344-14.272z m0 89.472v61.76l41.344 10.368v-60.16l-41.344-11.968z m-63.104-111.168v64.128l44.544 13.632v-62.4l-44.544-15.36z m0 92.864v64.192l44.544 11.2v-62.464l-44.544-12.928z m-68.224-116.352v66.688l48.256 14.784v-64.896l-48.256-16.64z m0 96.64v66.752l48.256 12.096v-64.896l-48.256-13.952z" fill="#409EFF" p-id="12966"></path></svg>